<mxfile host="Electron" agent="Mozilla/5.0 (Windows NT 10.0; Win64; x64) AppleWebKit/537.36 (KHTML, like Gecko) draw.io/26.1.1 Chrome/132.0.6834.210 Electron/34.3.3 Safari/537.36" version="26.1.1">
  <diagram name="Programmable Clock Divider" id="Programmable-Clock-Divider">
    <mxGraphModel dx         = "0"
                  dy         = "0"
                  grid       = "1"
                  gridSize   = "10"
                  guides     = "1"
                  tooltips   = "1"
                  connect    = "1"
                  arrows     = "1"
                  fold       = "1"
                  page       = "1"
                  pageScale  = "1"
                  pageWidth  = "150"
                  pageHeight = "60"
                  math       = "0"
                  shadow     = "0">
      <root>
        <mxCell id="0"/>
        <mxCell id="1" parent="0"/>
        <mxCell id          = "2"
                parent      = "1"
                value       = ""
                vertex      = "1"
                connectable = "0"
                style       = "group;connectable=1;points=[[0,0,0,15,0],[0,0,0,25,0],[0,0,0,15,10],[1,0,0,-15,0],[1,0,0,-25,0],[1,0,0,-15,10],[0,0,0,0,30],[1,0,0,0,30],[0,0,0,0,40],[0,0,0,0,50],[0.5,0,0,0,0],[0.5,0,0,0,60]];">
          <mxGeometry width  = "150"
                      height = "60"
                      as     = "geometry"/>
        </mxCell>
        <mxCell id     = "box"
                parent = "2"
                value  = ""
                vertex = "1"
                style  = "rounded=1;arcSize=5;fillColor=none;strokeWidth=1;strokeColor=black;whiteSpace=wrap;html=1;connectable=0;">
          <mxGeometry x="15"
                      y="0"
                      width="120"
                      height="60"
                      as="geometry"/>
        </mxCell>
        <mxCell id     = "title"
                parent = "2"
                value  = "Programmable Clock Divider"
                vertex = "1"
                style  = "text;html=1;align=center;verticalAlign=middle;whiteSpace=wrap;rounded=0;fontSize=8;fontStyle=1;fontColor=black;connectable=0;">
          <mxGeometry x      = "15"
                      y      = "7"
                      width  = "120"
                      height = "0"
                      as     = "geometry"/>
        </mxCell>
        <mxCell id     = "subtitle"
                parent = "2"
                value  = "programmable_clock_divider"
                vertex = "1"
                style  = "text;html=1;align=center;verticalAlign=middle;whiteSpace=wrap;rounded=0;fontSize=6;fontStyle=0;fontColor=black;connectable=0;">
          <mxGeometry x      = "15"
                      y      = "16"
                      width  = "120"
                      height = "0"
                      as     = "geometry"/>
        </mxCell>
            <mxCell id     = "clock_in-label"
                    parent = "2"
                    value  = "clock_in"
                    vertex = "1"
                    style  = "text;html=1;align=left;verticalAlign=middle;whiteSpace=wrap;rounded=0;fontSize=6;fontStyle=0;fontColor=black;connectable=0;">
              <mxGeometry
                x      = "15"
                y      = "30"
                width  = "120"
                height = "0"
                as     = "geometry"/>
            </mxCell>
            <mxCell id     = "clock_in-arrow"
                    parent = "2"
                    value  = ""
                    edge   = "1"
                    style  = "html=1;rounded=1;strokeWidth=1;strokeColor=black;startFill=0;startSize=2;startArrow=none;endFill=1;endSize=2;endArrow=blockThin;sourcePerimeterSpacing=0;">
              <mxGeometry width    = "50"
                          height   = "50"
                          relative = "1"
                          as       = "geometry">
                <mxPoint x  = "0"
                         y  = "30"
                         as = "sourcePoint"/>
                <mxPoint x  = "15"
                         y  = "30"
                         as = "targetPoint"/>
              </mxGeometry>
            </mxCell>
            <mxCell id="clock_out-label"
                    parent="2"
                    value="clock_out"
                    vertex="1"
                    style="text;html=1;align=right;verticalAlign=middle;whiteSpace=wrap;rounded=0;fontSize=6;fontStyle=0;fontColor=black;connectable=0;">
              <mxGeometry
                x      = "15"
                y      = "30"
                width  = "120"
                height = "0"
                as     = "geometry"/>
            </mxCell>
            <mxCell id     = "clock_out-arrow"
                    parent = "2"
                    value  = ""
                    edge   = "1"
                    style  = "html=1;rounded=1;strokeWidth=1;strokeColor=black;startFill=0;startSize=2;startArrow=none;endFill=1;endSize=2;endArrow=none;sourcePerimeterSpacing=0;">
              <mxGeometry width    = "50"
                          height   = "50"
                          relative = "1"
                          as       = "geometry">
                <mxPoint x  = "150"
                         y  = "30"
                         as = "sourcePoint"/>
                <mxPoint x  = "135"
                         y  = "30"
                         as = "targetPoint"/>
              </mxGeometry>
            </mxCell>
            <mxCell id     = "division-label"
                    parent = "2"
                    value  = "division"
                    vertex = "1"
                    style  = "text;html=1;align=left;verticalAlign=middle;whiteSpace=wrap;rounded=0;fontSize=6;fontStyle=0;fontColor=black;connectable=0;">
              <mxGeometry
                x      = "15"
                y      = "40"
                width  = "120"
                height = "0"
                as     = "geometry"/>
            </mxCell>
            <mxCell id     = "division-arrow"
                    parent = "2"
                    value  = ""
                    edge   = "1"
                    style  = "html=1;rounded=1;strokeWidth=1;strokeColor=black;startFill=0;startSize=2;startArrow=dash;endFill=1;endSize=2;endArrow=blockThin;sourcePerimeterSpacing=0;">
              <mxGeometry width    = "50"
                          height   = "50"
                          relative = "1"
                          as       = "geometry">
                <mxPoint x  = "0"
                         y  = "40"
                         as = "sourcePoint"/>
                <mxPoint x  = "15"
                         y  = "40"
                         as = "targetPoint"/>
              </mxGeometry>
            </mxCell>
            <mxCell id     = "resetn-label"
                    parent = "2"
                    value  = "resetn"
                    vertex = "1"
                    style  = "text;html=1;align=left;verticalAlign=middle;whiteSpace=wrap;rounded=0;fontSize=6;fontStyle=0;fontColor=black;connectable=0;">
              <mxGeometry
                x      = "15"
                y      = "50"
                width  = "120"
                height = "0"
                as     = "geometry"/>
            </mxCell>
            <mxCell id     = "resetn-arrow"
                    parent = "2"
                    value  = ""
                    edge   = "1"
                    style  = "html=1;rounded=1;strokeWidth=1;strokeColor=black;startFill=0;startSize=2;startArrow=none;endFill=1;endSize=2;endArrow=blockThin;sourcePerimeterSpacing=0;">
              <mxGeometry width    = "50"
                          height   = "50"
                          relative = "1"
                          as       = "geometry">
                <mxPoint x  = "0"
                         y  = "50"
                         as = "sourcePoint"/>
                <mxPoint x  = "15"
                         y  = "50"
                         as = "targetPoint"/>
              </mxGeometry>
            </mxCell>
      </root>
    </mxGraphModel>
  </diagram>
</mxfile>